# xmcd
#
# Track frame offsets: 
#        150
#        2822
#        20571
#        22948
#        41532
#        44098
#        62757
#        64171
#        79073
#        82087
#        96165
#        97239
#        110702
#        113392
#        131827
#        134428
#        150568
#        153526
#        172984
#        189135
#
# Disc length: 2707 seconds
#
# Revision: 7
# Processed by: cddbd v1.5.2PL0 Copyright (c) Steve Scherf et al.
# Submitted via: ExactAudioCopyFreeDBPlugin 1.0
#
DISCID=090a9114
DTITLE=容祖兒 - 我的驕傲
DYEAR=2003
DGENRE=Pop
TTITLE0=Geminian Theme
TTITLE1=習慣失戀
TTITLE2=Joey's Clock
TTITLE3=神魂顛倒
TTITLE4=Some Time
TTITLE5=心淡
TTITLE6=Yummy!
TTITLE7=Honey!
TTITLE8=你的擁戴
TTITLE9=我的驕傲
TTITLE10=好好聽
TTITLE11=跩跩
TTITLE12=Meow's Greeting
TTITLE13=與貓共舞
TTITLE14=Clubbin
TTITLE15=囉囉攣
TTITLE16=Lesson One
TTITLE17=最後一課
TTITLE18=他都不愛我
TTITLE19=揮著翅膀的女孩
EXTD=YEAR: 2003
EXTT0=
EXTT1=
EXTT2=
EXTT3=
EXTT4=
EXTT5=
EXTT6=
EXTT7=
EXTT8=
EXTT9=
EXTT10=
EXTT11=
EXTT12=
EXTT13=
EXTT14=
EXTT15=
EXTT16=
EXTT17=
EXTT18=
EXTT19=
PLAYORDER=
